<svg width="68" height="68" viewBox="0 0 68 68" fill="none" xmlns="http://www.w3.org/2000/svg">
<path d="M49.5846 18.4167H49.613M19.8346 5.66675H48.168C55.992 5.66675 62.3346 12.0094 62.3346 19.8334V48.1667C62.3346 55.9908 55.992 62.3334 48.168 62.3334H19.8346C12.0106 62.3334 5.66797 55.9908 5.66797 48.1667V19.8334C5.66797 12.0094 12.0106 5.66675 19.8346 5.66675ZM45.3346 32.2151C45.6843 34.5731 45.2815 36.9814 44.1836 39.0973C43.0857 41.2132 41.3485 42.9291 39.2192 44.0008C37.0899 45.0726 34.6769 45.4456 32.3234 45.0669C29.9698 44.6882 27.7956 43.577 26.11 41.8914C24.4244 40.2058 23.3132 38.0316 22.9345 35.678C22.5558 33.3245 22.9288 30.9114 24.0006 28.7821C25.0723 26.6528 26.7882 24.9157 28.9041 23.8178C31.02 22.7199 33.4283 22.3171 35.7863 22.6667C38.1916 23.0234 40.4184 24.1442 42.1378 25.8636C43.8572 27.583 44.978 29.8098 45.3346 32.2151Z" stroke="white" stroke-width="4" stroke-linecap="round" stroke-linejoin="round"/>
</svg>
