<svg width="68" height="68" viewBox="0 0 68 68" fill="none" xmlns="http://www.w3.org/2000/svg">
<path d="M65.1654 8.49993C62.4521 10.4138 59.448 11.8776 56.2687 12.8349C54.5623 10.8729 52.2945 9.48222 49.772 8.85105C47.2494 8.21988 44.5939 8.37865 42.1646 9.30588C39.7352 10.2331 37.6493 11.8841 36.1888 14.0355C34.7283 16.1869 33.9638 18.7349 33.9987 21.3349V24.1683C29.0195 24.2974 24.0856 23.1931 19.6366 20.9537C15.1875 18.7143 11.3613 15.4094 8.4987 11.3333C8.4987 11.3333 -2.83464 36.8333 22.6654 48.1666C16.8302 52.1275 9.87898 54.1136 2.83203 53.8333C28.332 67.9999 59.4987 53.8333 59.4987 21.2499C59.4961 20.4607 59.4202 19.6734 59.272 18.8983C62.1637 16.0465 64.2044 12.4459 65.1654 8.49993Z" stroke="white" stroke-width="4" stroke-linecap="round" stroke-linejoin="round"/>
</svg>
