<svg width="68" height="68" viewBox="0 0 68 68" fill="none" xmlns="http://www.w3.org/2000/svg">
<path d="M63.8637 18.1899C63.5271 16.8452 62.8416 15.6132 61.8765 14.6182C60.9114 13.6233 59.7008 12.9006 58.367 12.5233C53.4937 11.3333 34.0003 11.3333 34.0003 11.3333C34.0003 11.3333 14.507 11.3333 9.63365 12.6366C8.29985 13.0139 7.08925 13.7366 6.12413 14.7316C5.15901 15.7265 4.47355 16.9586 4.13698 18.3033C3.24509 23.249 2.80882 28.2661 2.83365 33.2916C2.80186 38.3549 3.23816 43.4103 4.13698 48.3933C4.50804 49.6962 5.20885 50.8813 6.17173 51.8343C7.1346 52.7872 8.32698 53.4757 9.63365 53.8333C14.507 55.1366 34.0003 55.1366 34.0003 55.1366C34.0003 55.1366 53.4937 55.1366 58.367 53.8333C59.7008 53.4559 60.9114 52.7332 61.8765 51.7383C62.8416 50.7433 63.5271 49.5113 63.8637 48.1666C64.7487 43.2581 65.1849 38.2792 65.167 33.2916C65.1988 28.2283 64.7625 23.1729 63.8637 18.1899Z" stroke="white" stroke-width="4" stroke-linecap="round" stroke-linejoin="round"/>
<path d="M27.6253 42.5566L43.917 33.2916L27.6253 24.0266V42.5566Z" stroke="white" stroke-width="4" stroke-linecap="round" stroke-linejoin="round"/>
</svg>
